<?xml version="1.0" encoding="UTF-8"?>
<svg width="512px" height="512px" viewBox="0 0 512 512" version="1.1" xmlns="http://www.w3.org/2000/svg">
    <title>Brain</title>
    <g stroke="none" fill="none">
        <path d="M440.9,137.9c-13.1-26.6-37.3-44.9-65.4-49.3c-2.4-10.8-6.6-21.3-12.9-30.8C345.4,33.4,319.2,22,294.7,22  c-10.8,0-21.3,1.7-31.2,5c-5.1-1.2-10.4-1.8-15.7-1.8c-24,0-46.7,12.2-60.1,31.5c-5.5,0.8-11,2-16.3,3.5  c-28.5,8.1-52,28.1-65.9,56.3c-12.9,26.2-16.4,55.8-10.1,83.4c-23.5,18.1-37.5,47.5-37.6,78.8c0,22.9,7.5,45,21.4,62.8  c-5.6,14.7-6.2,30.8-1.7,46c5.4,18.4,17.7,34.1,34.7,43.7c11.1,6.3,23.5,9.5,36.1,9.5c13.6,0,27.3-3.9,39.3-11.4  c7.9,2.1,16.2,3.1,24.4,3.1c14,0,27.9-3,40.7-8.9c9.8,2.4,19.9,3.6,30.1,3.6c15.4,0,30.8-2.9,45.3-8.5c10.1,5.3,21.3,8.1,32.6,8.1  c12.3,0,24.6-3.2,35.4-9.3c17.7-9.9,30.4-26.5,35.8-46.4c3.7-13.7,3.2-28-1.3-41.1c9.3-12.1,14.3-27,14.3-42.6  c0-12.2-3.2-24.3-9.3-35c6.4-17.5,8.1-36.5,4.6-55.2C447.8,170.3,446.1,153.6,440.9,137.9z M267.9,328V184c0-5.5-4.5-10-10-10  s-10,4.5-10,10v144.1c-5.9,1.6-10.6,6.2-12.4,12.2c-14.2,5.8-28.9,8.8-43.8,8.8c-8.4,0-16.8-0.9-25-2.8c-4.8-1.1-9.7,1.2-12.2,5.5  c-7.9,13.3-22.4,21.7-38,21.7c-7.8,0-15.3-2-22-5.9c-10.9-6.2-18.7-16.2-22.1-28.3c-3.4-11.5-1.8-23.7,4.2-34.1  c2.2-3.7,2.1-8.3-0.2-12c-12.5-19.2-13.3-44.6-2.1-64.7c3.2-5.7,7.1-10.8,11.8-15.2c3.5-3.4,4.2-8.7,1.6-12.9  c-14.1-23.5-12.1-53.4,5.3-75.2c11.3-14.2,27.3-23.8,45-27.1c4.2-0.8,8.3-1.2,12.3-1.2c5.2,0,10.3,0.6,15.4,1.8  c3.5,0.8,7.1-0.2,9.7-2.6c2.6-2.5,3.8-6,3.2-9.5c-1-5.6-1.5-11.4-1.5-17.1c0-14.1,3.2-27.9,9.5-40.5c8.6-17.5,23.3-31,41.5-38.1  c12.8-5,26.7-6.5,40.3-4.4c31.9,4.9,57.1,31.2,60.7,63.3c0.3,3,1.9,5.7,4.3,7.5c2.5,1.8,5.6,2.4,8.5,1.6c14.3-3.9,29.2-2.3,42.2,4.3  c13.3,6.8,23.3,18.5,28.1,33c6.3,19.2,3.1,40.1-8.7,57.1c-10.2,14.8-26.7,24.3-44.3,25.7c-7.4,0.6-14.5-0.2-21.3-2.3  c-5-1.5-10.4,0.7-12.8,5.4c-5,9.7-15.1,15.8-26.2,15.8c-16.3,0-29.6-13.3-29.6-29.6v-41c0-5.5-4.5-10-10-10s-10,4.5-10,10v41.1  c0,27.3,22.2,49.5,49.5,49.5c12.9,0,25-5,34.1-13.8c8.5,2.4,17.3,3.5,26.2,3.5c1.7,0,3.5-0.1,5.2-0.2c14.2-1.1,27.9-5.9,39.8-13.9  c-0.6,26-9.3,50.9-25.1,71.3c-2.6,3.4-2.8,8-0.5,11.6c6,9.5,9.1,20.4,9.1,31.3c0,10.5-2.8,20.7-8.1,29.6c-3.1,5.3-1.9,12.1,2.9,15.8  c8.3,6.5,12.5,16.9,10.8,27c-2.3,13.7-11.6,25.3-24.5,30.8c-7.3,3.1-15.2,4.1-23.1,2.8c-5.2-0.8-10.3,2-12.2,6.9  c-6.1,15.5-21.2,25.9-37.9,25.9c-8,0-15.7-2.3-22.3-6.7c-2.7-1.8-6.1-2.2-9.1-1.1c-22.9,8.2-47.5,10.1-71.4,5.3  c-3-0.6-6.1,0.3-8.5,2.4c-3.2,2.9-4.4,7.5-2.9,11.6c1.1,3.2,0.5,6.7-1.7,9.3c-2.2,2.6-5.6,3.7-8.9,3c-2.9-0.6-5.8-0.9-8.8-0.9  c-20.6,0-38.3,14.7-42.5,35c-2.1,10.3,0.3,21.1,6.8,29.8c5.9,8,14.8,13.4,24.5,15.1c19.5,3.4,38.9-9.4,43.6-28.6  c0.6-2.5,0.9-5.1,0.9-7.6c0-3.1-0.5-6.1-1.3-9.1c13.4,1.9,27,2,40.6-0.1c18.5,9.5,39.3,14.4,60.1,14.4c9.6,0,19.2-1,28.6-3  c19.9,7.2,42.9,3.6,59.5-10.1c12.5-10.2,19.9-25.2,20.6-42c0-0.6,0-1.1,0-1.7c8.3-13.8,12.6-29.6,12.5-45.5  c0-15.7-4.1-31.2-11.9-44.7c2.2-6.9,3.7-14,4.7-21.1c11.7,1.9,23.4,1.4,35-1.5c3.5-0.9,6.7,1.2,7.6,4.7c0.9,3.5-1.2,7.1-4.7,7.9  c-8.5,2.1-17.2,2.5-25.9,1.2c-4.2-0.6-8.3,1.4-10.4,5.2c-2.4,4.4-5.1,8.6-8.1,12.6c-2.6,3.6-2.5,8.5,0.3,12c7.3,9.1,12,20,13.7,31.5  c1.3,8.6,1,17.3-0.8,25.7c-1.4,6.8-3.8,13.4-7.1,19.5c-2.3,4.3-1.5,9.6,2,13c8.2,8,12.4,19.2,11.4,30.8c-1,11.6-6.8,22.1-16.2,29.4  c-11.7,9-27.9,11.1-41.4,5.3c-5.3-2.3-11.5,0.4-13.3,5.9c-2.7,8.2-8.9,15-17,18.4c-4.7,2-9.8,3-14.8,3c-7.8,0-15.4-2.2-22-6.4  c-3.9-2.5-8.9-2.1-12.4,0.8c-3.5,2.9-4.7,7.8-3,12c2.7,6.8,2.9,14.2,0.7,21.2c-2.2,7-6.8,12.9-13,16.7c-6.5,4-14.1,5.4-21.6,3.7  c-7.5-1.6-14-6-18.1-12.1c-3.8-5.6-5.5-12.3-4.8-19c0.7-6.7,3.6-12.9,8.3-17.6c3.7-3.7,4.6-9.4,2.1-14.1s-8-7.1-13.3-5.8  c-10.5,2.6-21.5,2.8-32,0.7c-15.9-3.2-30.5-11.6-41.8-24.1c-3.7-4.1-10-4.4-14.1-0.7c-4.1,3.7-4.4,10-0.7,14.1  c14.1,15.6,32.6,26.2,52.9,30.3c5,1,10.1,1.7,15.2,2c-1.5,3.4-2.7,7-3.4,10.7c-2,10.4,0.3,21.1,6.3,29.8c8.1,11.7,21.2,18.7,35.5,18.7  c3.1,0,6.2-0.3,9.3-1c7.5-1.6,14.4-4.8,20.4-9.5c6.1,1.9,12.4,2.8,18.7,2.8c8.7,0,17.4-1.7,25.6-5.2c9.8-4.1,18.1-10.8,24.2-19.3  c10.9,2.9,22.1,2.9,33,0.1c3.5-0.9,6.7,1.2,7.6,4.7c0.9,3.5-1.2,7.1-4.7,7.9c-11.2,2.8-22.9,2.8-34.2,0.1c-1.5-0.4-3-0.3-4.4,0.2  c-1.4,0.5-2.5,1.4-3.3,2.6c-6.3,9.7-16.5,16.5-27.9,18.7c-11.5,2.3-23.3-0.2-32.6-6.7c-1.3-0.9-2.9-1.3-4.4-1.1  c-1.6,0.2-3,0.9-4.1,2.1c-4.7,5.2-10.9,8.8-17.7,10.3c-6.8,1.5-13.8,0.5-19.7-2.7c-5.9-3.2-10.4-8.4-12.5-14.5  c-2.2-6.2-1.7-12.8,1.2-18.5c1.1-2.2,1.3-4.7,0.5-7s-2.5-4.2-4.7-5.1c-22.2-9.2-39.7-26.8-48.8-49.1c-5.8-14.2-8.1-29.5-6.7-44.7  C257.3,334.2,261.9,329.6,267.9,328z" fill="#347be4"></path>
    </g>
</svg>